<svg width="456.29999999999995" height="75.23382949564947" viewBox="0 0 370 61.00485845581922" class="looka-1j8o68f">
<defs id="SvgjsDefs4120"></defs>
<g id="SvgjsG4121" featurekey="pxMwYC-0" transform="matrix(1.007112842018009,0,0,1.007112842018009,0.0006033850086122317,-19.13556659970868)" fill="#70aaff">
<g xmlns="http://www.w3.org/2000/svg">
<path d="M84.475,36.042c1.05,0.417,2.039,0.032,2.211-0.959c0.172-0.988-0.541-2.236-1.591-2.686   C57.476,20.589,29.856,58.072,2.236,29.631c-1.049-1.076-2.039-1.345-2.211-0.469c-0.172,0.873,0.541,2.601,1.59,3.72   C29.235,62.318,56.855,24.966,84.475,36.042z"></path>
<path d="M31.604,32.354c11.149-1.54,22.299-7.17,33.448-9.308c1.049-0.203,2.038-1.227,2.211-2.328   c0.171-1.1-0.542-1.879-1.592-1.689c-11.148,2.006-22.298,7.643-33.447,9.333c-1.05,0.162-2.039,1.139-2.21,2.232   C29.842,31.687,30.554,32.497,31.604,32.354z"></path>
<path d="M97.678,53.296c-27.62-29.436-55.24,7.918-82.859-3.159c-1.05-0.416-2.04-0.031-2.211,0.959   c-0.171,0.987,0.541,2.236,1.591,2.687c27.619,11.809,55.239-25.677,82.858,2.767c1.05,1.074,2.04,1.345,2.211,0.468   C99.438,56.144,98.728,54.416,97.678,53.296z"></path>
<path d="M89.354,58.037C61.735,40.856,34.115,78.892,6.495,56.923c-1.05-0.829-2.039-0.856-2.211,0.062   c-0.171,0.916,0.542,2.464,1.592,3.335c27.619,22.875,55.238-15.118,82.858,1.242c1.049,0.617,2.039,0.434,2.21-0.523   C91.117,60.087,90.404,58.691,89.354,58.037z"></path>
<path d="M38.082,73.977c-11.149,2.84-22.298,3.06-33.447-6.92c-1.05-0.935-2.04-1.064-2.211-0.163   c-0.171,0.896,0.541,2.521,1.59,3.499c11.149,10.361,22.298,10.382,33.447,7.642c1.05-0.257,2.04-1.404,2.211-2.528   C39.843,74.381,39.132,73.71,38.082,73.977z"></path>
</g>
</g>
<g id="SvgjsG4122" featurekey="Vx5QiU-0" transform="matrix(1.828019962281468,0,0,1.828019962281468,118.64726651798013,-2.920737625133846)" fill="#d1d5db">
<path d="M12.65 19.18 q-1.85 1.1 -4.03 1.1 q-2.14 0 -3.95 -1.02 t-2.87 -2.76 t-1.06 -3.8 q0 -2.04 1.06 -3.78 t2.87 -2.76 t3.95 -1.02 q2.16 0 4.02 1.09 t2.92 2.91 l-2.94 1.14 q-0.7 -1 -1.77 -1.64 t-2.23 -0.64 q-1.28 0 -2.36 0.65 t-1.71 1.73 t-0.63 2.32 t0.63 2.33 t1.71 1.74 t2.36 0.65 q1.16 0 2.23 -0.65 t1.77 -1.67 l2.94 1.14 q-1.06 1.84 -2.91 2.94 z M20.009999999999998 19.49 q-1.37 -0.77 -2.17 -2.09 t-0.8 -2.88 q0 -1.54 0.8 -2.86 t2.17 -2.09 t2.99 -0.77 t3 0.77 t2.19 2.09 t0.81 2.86 q0 1.56 -0.81 2.88 t-2.19 2.09 t-3 0.77 t-2.99 -0.77 z M21.48 11.83 q-0.7 0.41 -1.1 1.12 t-0.4 1.57 q0 0.9 0.39 1.61 t1.08 1.12 t1.55 0.41 q0.84 0 1.53 -0.41 t1.09 -1.13 t0.4 -1.6 q0 -0.86 -0.4 -1.57 t-1.09 -1.12 t-1.53 -0.41 q-0.82 0 -1.52 0.41 z M39.78 18.9 q-0.38 0.52 -1.31 0.93 t-2.03 0.41 q-1.7 0 -2.95 -0.76 t-1.91 -2.07 t-0.66 -2.91 t0.66 -2.91 t1.91 -2.07 t2.95 -0.76 q1.14 0 2.01 0.39 t1.33 0.99 l0 -5.26 l2.96 0 l0 15.12 l-2.96 0 l0 -1.1 z M39.08 12.25 q-0.82 -0.87 -2.2 -0.87 q-1.4 0 -2.21 0.87 t-0.81 2.25 q0 1.34 0.83 2.22 t2.19 0.88 q1.4 0 2.21 -0.83 t0.81 -2.27 q0 -1.38 -0.82 -2.25 z M48.51 19.74 q-1.37 -0.54 -2.35 -1.83 t-0.98 -3.37 t0.99 -3.36 t2.37 -1.82 t2.62 -0.54 q1.44 0 2.74 0.64 t2.13 1.88 t0.87 2.94 q0 0.52 -0.02 0.9 t-0.04 0.48 l-8.68 0 q0.24 1.16 1.2 1.58 t1.8 0.42 q1.08 0 1.72 -0.39 t1.1 -0.89 l2.32 1.34 q-1.88 2.56 -5.14 2.56 q-1.28 0 -2.65 -0.54 z M49.12 12.05 q-0.78 0.61 -0.88 1.49 l5.5 0 q-0.06 -0.52 -0.4 -1 t-0.91 -0.79 t-1.29 -0.31 q-1.24 0 -2.02 0.61 z M65.32 20 l0 -15.12 l2.96 0 l0 5.26 q0.46 -0.6 1.33 -0.99 t2.01 -0.39 q1.7 0 2.95 0.76 t1.91 2.07 t0.66 2.91 t-0.66 2.91 t-1.91 2.07 t-2.95 0.76 q-1.1 0 -2.03 -0.41 t-1.31 -0.93 l0 1.1 l-2.96 0 z M68.97 16.77 q0.81 0.83 2.21 0.83 q1.36 0 2.19 -0.88 t0.83 -2.22 q0 -1.38 -0.81 -2.25 t-2.21 -0.87 q-1.38 0 -2.2 0.87 t-0.82 2.25 q0 1.44 0.81 2.27 z M84.82000000000001 11.87 q-0.86 0.21 -1.58 0.99 t-0.72 2.28 l0 4.86 l-2.98 0 l0 -11 l2.98 0 l0 1.46 q0.74 -0.98 1.81 -1.33 t1.95 -0.33 l0 2.92 q-0.6 -0.06 -1.46 0.15 z M90.55000000000001 19.74 q-1.37 -0.54 -2.35 -1.83 t-0.98 -3.37 t0.99 -3.36 t2.37 -1.82 t2.62 -0.54 q1.44 0 2.74 0.64 t2.13 1.88 t0.87 2.94 q0 0.52 -0.02 0.9 t-0.04 0.48 l-8.68 0 q0.24 1.16 1.2 1.58 t1.8 0.42 q1.08 0 1.72 -0.39 t1.1 -0.89 l2.32 1.34 q-1.88 2.56 -5.14 2.56 q-1.28 0 -2.65 -0.54 z M91.16000000000001 12.05 q-0.78 0.61 -0.88 1.49 l5.5 0 q-0.06 -0.52 -0.4 -1 t-0.91 -0.79 t-1.29 -0.31 q-1.24 0 -2.02 0.61 z M104.17000000000002 19.74 q-1.37 -0.54 -2.35 -1.83 t-0.98 -3.37 t0.99 -3.36 t2.37 -1.82 t2.62 -0.54 q1.44 0 2.74 0.64 t2.13 1.88 t0.87 2.94 q0 0.52 -0.02 0.9 t-0.04 0.48 l-8.68 0 q0.24 1.16 1.2 1.58 t1.8 0.42 q1.08 0 1.72 -0.39 t1.1 -0.89 l2.32 1.34 q-1.88 2.56 -5.14 2.56 q-1.28 0 -2.65 -0.54 z M104.78000000000002 12.05 q-0.78 0.61 -0.88 1.49 l5.5 0 q-0.06 -0.52 -0.4 -1 t-0.91 -0.79 t-1.29 -0.31 q-1.24 0 -2.02 0.61 z M114.32000000000002 11.62 l0 -2.58 l10.46 0 l-6 8.36 l5.38 0 l0 2.6 l-10.66 0 l5.98 -8.38 l-5.16 0 z M129.11 19.74 q-1.37 -0.54 -2.35 -1.83 t-0.98 -3.37 t0.99 -3.36 t2.37 -1.82 t2.62 -0.54 q1.44 0 2.74 0.64 t2.13 1.88 t0.87 2.94 q0 0.52 -0.02 0.9 t-0.04 0.48 l-8.68 0 q0.24 1.16 1.2 1.58 t1.8 0.42 q1.08 0 1.72 -0.39 t1.1 -0.89 l2.32 1.34 q-1.88 2.56 -5.14 2.56 q-1.28 0 -2.65 -0.54 z M129.72000000000003 12.05 q-0.78 0.61 -0.88 1.49 l5.5 0 q-0.06 -0.52 -0.4 -1 t-0.91 -0.79 t-1.29 -0.31 q-1.24 0 -2.02 0.61 z">
</path>
</g>
<g id="SvgjsG4123" featurekey="aAUSXE-0" transform="matrix(0.709191132662114,0,0,0.709191132662114,156.86529391720566,41.375994128008045)" fill="#70aaff">
<path d="M12.42 20 l-10.82 0 l0 -15.98 l3.16 0 l0 12.98 l7.66 0 l0 3 z M36.156000000000006 20 l-10.56 0 l0 -15.98 l10.56 0 l0 2.56 l-7.52 0 l0 3.82 l7.42 0 l0 2.5 l-7.42 0 l0 4.4 l7.52 0 l0 2.7 z M60.912 6.779999999999999 l-4.42 0 l0 13.22 l-3.14 0 l0 -13.22 l-4.42 0 l0 -2.76 l11.98 0 l0 2.76 z M95.06400000000001 20 l-3.1 0 l0 -15.98 l3.1 0 l0 15.98 z M120.42 6.779999999999999 l-4.42 0 l0 13.22 l-3.14 0 l0 -13.22 l-4.42 0 l0 -2.76 l11.98 0 l0 2.76 z M162.03199999999998 6.68 l-7.52 0 l0 3.72 l7.42 0 l0 2.52 l-7.42 0 l0 7.08 l-3.04 0 l0 -15.98 l10.56 0 l0 2.66 z M186.22799999999998 20 l-10.82 0 l0 -15.98 l3.16 0 l0 12.98 l7.66 0 l0 3 z M214.724 12 q0 1.72 -0.67 3.24 t-1.83 2.64 t-2.7 1.77 t-3.28 0.65 t-3.29 -0.65 t-2.71 -1.77 t-1.83 -2.63 t-0.67 -3.25 t0.67 -3.26 t1.83 -2.64 t2.71 -1.76 t3.29 -0.64 t3.28 0.64 t2.7 1.77 t1.83 2.64 t0.67 3.25 z M211.60399999999998 12 q0 -1.1 -0.42 -2.07 t-1.15 -1.7 t-1.71 -1.16 t-2.08 -0.43 q-1.12 0 -2.1 0.43 t-1.71 1.16 t-1.15 1.7 t-0.42 2.07 q0 1.08 0.42 2.06 t1.15 1.71 t1.71 1.16 t2.1 0.43 q1.1 0 2.08 -0.43 t1.71 -1.16 t1.15 -1.71 t0.42 -2.06 z M248.35999999999999 4 l-5.2 16 l-2.72 0 l-2.94 -9.88 l-2.96 9.88 l-2.72 0 l-5.2 -16 l3.28 0 l3.38 10.34 l2.92 -10.34 l2.56 0 l2.92 10.36 l3.42 -10.36 l3.26 0 z">
</path>
</g>
</svg>