<svg width="800" height="500" viewBox="0 0 100 60" class="looka-1j8o68f" preserveAspectRatio="xMinYMin meet">
    <defs id="SvgjsDefs4120"></defs>
    <g id="SvgjsG4121" featurekey="pxMwYC-0" transform="matrix(1.007112842018009,0,0,1.007112842018009,0.0006033850086122317,-19.13556659970868)" fill="#70aaff">
        <g xmlns="http://www.w3.org/2000/svg">
            <path d="M84.475,36.042c1.05,0.417,2.039,0.032,2.211-0.959c0.172-0.988-0.541-2.236-1.591-2.686   C57.476,20.589,29.856,58.072,2.236,29.631c-1.049-1.076-2.039-1.345-2.211-0.469c-0.172,0.873,0.541,2.601,1.59,3.72   C29.235,62.318,56.855,24.966,84.475,36.042z"></path>
            <path d="M31.604,32.354c11.149-1.54,22.299-7.17,33.448-9.308c1.049-0.203,2.038-1.227,2.211-2.328   c0.171-1.1-0.542-1.879-1.592-1.689c-11.148,2.006-22.298,7.643-33.447,9.333c-1.05,0.162-2.039,1.139-2.21,2.232   C29.842,31.687,30.554,32.497,31.604,32.354z"></path>
            <path d="M97.678,53.296c-27.62-29.436-55.24,7.918-82.859-3.159c-1.05-0.416-2.04-0.031-2.211,0.959   c-0.171,0.987,0.541,2.236,1.591,2.687c27.619,11.809,55.239-25.677,82.858,2.767c1.05,1.074,2.04,1.345,2.211,0.468   C99.438,56.144,98.728,54.416,97.678,53.296z"></path>
            <path d="M89.354,58.037C61.735,40.856,34.115,78.892,6.495,56.923c-1.05-0.829-2.039-0.856-2.211,0.062   c-0.171,0.916,0.542,2.464,1.592,3.335c27.619,22.875,55.238-15.118,82.858,1.242c1.049,0.617,2.039,0.434,2.21-0.523   C91.117,60.087,90.404,58.691,89.354,58.037z"></path>
            <path d="M38.082,73.977c-11.149,2.84-22.298,3.06-33.447-6.92c-1.05-0.935-2.04-1.064-2.211-0.163   c-0.171,0.896,0.541,2.521,1.59,3.499c11.149,10.361,22.298,10.382,33.447,7.642c1.05-0.257,2.04-1.404,2.211-2.528   C39.843,74.381,39.132,73.71,38.082,73.977z"></path>
        </g>
    </g>
</svg>